PathFileType	4	(X/Y/Z)	E:/New_biomech_experiments/Elbow Flexion/Shreyas_25_06_24_elbow_flexion/Session 2024-06-26/Shreyas_ElbFlex_pp_staticPose.trc	
DataRate	CameraRate	NumFrames	NumMarkers	Units	OrigDataRate	OrigDataStartFrame	OrigNumFrames	
120.00	120.00	12	19	m	120.00	98	778	
Frame#	Time	MarkerSet_LFHD			MarkerSet_LBHD			MarkerSet_C7			MarkerSet_RBHD			MarkerSet_PRSHO			MarkerSet_RSHO			MarkerSet_STRN			MarkerSet_RFHD			MarkerSet_CLAV			MarkerSet_RWRA			MarkerSet_RWRB			MarkerSet_ARSHO			MarkerSet_RFRM			MarkerSet_RELB			MarkerSet_RUPA			MarkerSet_MRHAND			MarkerSet_T10			MarkerSet_RHAND			MarkerSet_MRELB			
		X1	Y1	Z1	X2	Y2	Z2	X3	Y3	Z3	X4	Y4	Z4	X5	Y5	Z5	X6	Y6	Z6	X7	Y7	Z7	X8	Y8	Z8	X9	Y9	Z9	X10	Y10	Z10	X11	Y11	Z11	X12	Y12	Z12	X13	Y13	Z13	X14	Y14	Z14	X15	Y15	Z15	X16	Y16	Z16	X17	Y17	Z17	X18	Y18	Z18	X19	Y19	Z19	

98	0.808	0.04678	1.83991	-0.04744	-0.05839	1.73871	-0.07166	-0.08857	1.54538	-0.01086	-0.07723	1.75654	0.06497	-0.11521	1.44806	0.11805	0.00243	1.50173	0.20072	0.14876	1.34672	-0.01153	0.02562	1.82264	0.07889	0.10875	1.46947	-0.00418	0.25222	1.18937	0.14409	0.27194	1.16531	0.23920	0.08765	1.45914	0.10704	0.14557	1.18360	0.25101	0.01153	1.18922	0.27148	0.00371	1.30822	0.24859	0.36462	1.14863	0.24364	-0.11065	1.33527	-0.02180	0.39068	1.18748	0.12884	-0.00058	1.13790	0.16343 
99	0.817	0.04668	1.83989	-0.04753	-0.05847	1.73868	-0.07167	-0.08858	1.54536	-0.01087	-0.07721	1.75653	0.06500	-0.11518	1.44801	0.11805	0.00247	1.50171	0.20069	0.14877	1.34672	-0.01159	0.02564	1.82264	0.07882	0.10873	1.46945	-0.00425	0.25231	1.18941	0.14404	0.27203	1.16536	0.23915	0.08767	1.45913	0.10700	0.14566	1.18362	0.25097	0.01163	1.18921	0.27146	0.00379	1.30820	0.24857	0.36472	1.14872	0.24357	-0.11081	1.33540	-0.02180	0.39076	1.18757	0.12879	-0.00053	1.13791	0.16340 
100	0.825	0.04658	1.83986	-0.04763	-0.05856	1.73865	-0.07168	-0.08859	1.54534	-0.01087	-0.07718	1.75651	0.06503	-0.11515	1.44797	0.11805	0.00251	1.50169	0.20066	0.14877	1.34672	-0.01164	0.02566	1.82265	0.07874	0.10871	1.46943	-0.00431	0.25239	1.18944	0.14399	0.27212	1.16542	0.23909	0.08768	1.45910	0.10694	0.14575	1.18364	0.25092	0.01172	1.18920	0.27144	0.00386	1.30818	0.24854	0.36481	1.14880	0.24351	-0.11090	1.33547	-0.02180	0.39086	1.18767	0.12876	-0.00050	1.13793	0.16337 
101	0.833	0.04649	1.83984	-0.04773	-0.05864	1.73862	-0.07169	-0.08861	1.54532	-0.01088	-0.07716	1.75650	0.06504	-0.11513	1.44793	0.11805	0.00255	1.50168	0.20063	0.14878	1.34671	-0.01170	0.02567	1.82267	0.07866	0.10870	1.46941	-0.00438	0.25247	1.18948	0.14393	0.27221	1.16547	0.23903	0.08769	1.45908	0.10688	0.14584	1.18367	0.25088	0.01181	1.18919	0.27141	0.00394	1.30817	0.24851	0.36491	1.14889	0.24343	-0.11079	1.33535	-0.02180	0.39096	1.18780	0.12875	-0.00047	1.13796	0.16333 
102	0.842	0.04640	1.83981	-0.04783	-0.05872	1.73860	-0.07170	-0.08862	1.54529	-0.01089	-0.07715	1.75648	0.06506	-0.11510	1.44789	0.11805	0.00259	1.50166	0.20060	0.14879	1.34671	-0.01176	0.02569	1.82268	0.07858	0.10869	1.46940	-0.00444	0.25254	1.18952	0.14386	0.27230	1.16552	0.23897	0.08771	1.45906	0.10683	0.14594	1.18371	0.25084	0.01190	1.18918	0.27138	0.00401	1.30815	0.24848	0.36501	1.14897	0.24335	-0.11062	1.33518	-0.02180	0.39107	1.18795	0.12877	-0.00046	1.13800	0.16328 
103	0.850	0.04631	1.83979	-0.04793	-0.05880	1.73857	-0.07172	-0.08863	1.54526	-0.01089	-0.07714	1.75646	0.06506	-0.11507	1.44785	0.11804	0.00263	1.50164	0.20058	0.14880	1.34671	-0.01182	0.02570	1.82268	0.07850	0.10869	1.46938	-0.00449	0.25262	1.18957	0.14380	0.27239	1.16557	0.23889	0.08773	1.45905	0.10678	0.14603	1.18375	0.25081	0.01199	1.18917	0.27134	0.00409	1.30813	0.24845	0.36512	1.14905	0.24327	-0.11049	1.33505	-0.02181	0.39117	1.18810	0.12880	-0.00048	1.13805	0.16322 
104	0.858	0.04623	1.83977	-0.04802	-0.05887	1.73855	-0.07173	-0.08864	1.54523	-0.01091	-0.07713	1.75645	0.06506	-0.11504	1.44781	0.11803	0.00267	1.50162	0.20055	0.14881	1.34671	-0.01189	0.02570	1.82268	0.07841	0.10869	1.46937	-0.00455	0.25269	1.18961	0.14372	0.27248	1.16562	0.23882	0.08775	1.45905	0.10673	0.14613	1.18381	0.25078	0.01209	1.18916	0.27131	0.00417	1.30811	0.24842	0.36522	1.14913	0.24318	-0.11040	1.33496	-0.02181	0.39127	1.18825	0.12880	-0.00054	1.13814	0.16315 
105	0.867	0.04614	1.83974	-0.04812	-0.05894	1.73853	-0.07175	-0.08865	1.54520	-0.01092	-0.07711	1.75644	0.06506	-0.11501	1.44777	0.11802	0.00271	1.50161	0.20051	0.14883	1.34671	-0.01195	0.02571	1.82268	0.07833	0.10868	1.46937	-0.00461	0.25277	1.18966	0.14365	0.27257	1.16567	0.23873	0.08777	1.45904	0.10668	0.14623	1.18389	0.25077	0.01219	1.18915	0.27127	0.00425	1.30809	0.24838	0.36532	1.14921	0.24309	-0.11035	1.33490	-0.02182	0.39135	1.18836	0.12876	-0.00064	1.13826	0.16307 
106	0.875	0.04607	1.83972	-0.04822	-0.05901	1.73850	-0.07177	-0.08866	1.54517	-0.01094	-0.07710	1.75642	0.06506	-0.11498	1.44774	0.11801	0.00275	1.50159	0.20048	0.14884	1.34671	-0.01201	0.02571	1.82268	0.07824	0.10868	1.46936	-0.00467	0.25285	1.18971	0.14357	0.27267	1.16571	0.23865	0.08780	1.45902	0.10662	0.14634	1.18397	0.25076	0.01229	1.18914	0.27123	0.00433	1.30807	0.24834	0.36542	1.14929	0.24300	-0.11032	1.33486	-0.02182	0.39143	1.18846	0.12871	-0.00081	1.13843	0.16297 
107	0.883	0.04599	1.83970	-0.04832	-0.05907	1.73848	-0.07179	-0.08867	1.54515	-0.01095	-0.07711	1.75639	0.06503	-0.11494	1.44770	0.11800	0.00279	1.50158	0.20045	0.14886	1.34671	-0.01207	0.02570	1.82268	0.07815	0.10868	1.46935	-0.00473	0.25292	1.18976	0.14349	0.27277	1.16576	0.23856	0.08782	1.45900	0.10656	0.14644	1.18405	0.25075	0.01240	1.18913	0.27119	0.00441	1.30805	0.24830	0.36552	1.14937	0.24290	-0.11032	1.33486	-0.02183	0.39152	1.18858	0.12867	-0.00103	1.13862	0.16286 
108	0.892	0.04592	1.83969	-0.04841	-0.05914	1.73846	-0.07182	-0.08867	1.54512	-0.01097	-0.07714	1.75636	0.06498	-0.11491	1.44766	0.11798	0.00283	1.50156	0.20042	0.14887	1.34670	-0.01213	0.02568	1.82266	0.07806	0.10869	1.46934	-0.00479	0.25300	1.18980	0.14340	0.27287	1.16581	0.23847	0.08784	1.45898	0.10650	0.14655	1.18411	0.25071	0.01250	1.18911	0.27115	0.00449	1.30803	0.24826	0.36563	1.14946	0.24280	-0.11036	1.33488	-0.02183	0.39160	1.18870	0.12863	-0.00120	1.13880	0.16276 
109	0.900	0.04585	1.83968	-0.04851	-0.05920	1.73844	-0.07185	-0.08868	1.54509	-0.01098	-0.07718	1.75633	0.06492	-0.11488	1.44763	0.11798	0.00288	1.50155	0.20039	0.14889	1.34670	-0.01220	0.02566	1.82264	0.07797	0.10869	1.46934	-0.00485	0.25308	1.18985	0.14331	0.27297	1.16586	0.23838	0.08787	1.45897	0.10644	0.14665	1.18416	0.25067	0.01261	1.18911	0.27110	0.00458	1.30802	0.24822	0.36573	1.14954	0.24270	-0.11044	1.33495	-0.02183	0.39168	1.18881	0.12856	-0.00131	1.13892	0.16267 
